PathFileType	4	(X/Y/Z)	AB10\squats_1.trc
DataRate	CameraRate	NumFrames	NumMarkers	Units	OrigDataRate	OrigDataStartFrame	OrigNumFrames
200.000000	200.000000	4	35	mm	200.000000	214	343
Frame#	Time	C7			LSHO			STRN			LASI			RASI			LPSI			RPSI			LGTR			RGTR			LTHL			LTHR			LKNE			LMKNE			LSHC			LSHL			LSHR			LANK			LMANK			LMT1			LMT5			LCAL			RTHC			RTHL			RTHR			RKNE			RMKNE			RSHC			RSHL			RSHR			RANK			RMANK			RMT1			RMT5			RCAL			LTHC			
		X1	Y1	Z1	X2	Y2	Z2	X3	Y3	Z3	X4	Y4	Z4	X5	Y5	Z5	X6	Y6	Z6	X7	Y7	Z7	X8	Y8	Z8	X9	Y9	Z9	X10	Y10	Z10	X11	Y11	Z11	X12	Y12	Z12	X13	Y13	Z13	X14	Y14	Z14	X15	Y15	Z15	X16	Y16	Z16	X17	Y17	Z17	X18	Y18	Z18	X19	Y19	Z19	X20	Y20	Z20	X21	Y21	Z21	X22	Y22	Z22	X23	Y23	Z23	X24	Y24	Z24	X25	Y25	Z25	X26	Y26	Z26	X27	Y27	Z27	X28	Y28	Z28	X29	Y29	Z29	X30	Y30	Z30	X31	Y31	Z31	X32	Y32	Z32	X33	Y33	Z33	X34	Y34	Z34	X35	Y35	Z35	

215	25.695	-3543.510758919902	1081.201508019022	2478.163146133455	-3573.469473696946	1025.598018450423	2629.669443632298	-3603.3484971752	908.7005231640769	2480.005800847822	-3382.611099366082	641.5743084847205	2603.43076024683	-3386.935214138816	626.0152913045807	2335.243578765979	-3208.255036738128	714.4586764704299	2519.124059117619	-3220.090767017251	717.5785428356422	2427.945913262275	-3312.782317254222	639.0498482203477	2676.556369808074	-3299.060503671732	620.7421458857874	2256.91730422937	-3545.414200687054	586.3832764797057	2644.269349112402	-3476.672553493865	418.9156632581792	2674.428514848844	-3642.62017689473	428.3455859498573	2721.150380448249	-3662.474812581852	411.6198905393861	2590.489485792667	-3542.485655963751	278.9237737970971	2726.647431661864	-3547.898692497482	164.6667012660076	2673.985589267269	-3458.312303612815	211.0765990006936	2654.031076257668	-3428.900822458369	99.1904513499732	2701.136305964569	-3459.049292487392	86.1994472601309	2615.439365226535	-3573.722436319586	62.56913453078993	2676.581114383955	-3516.491504994483	51.10903814302228	2762.911734517897	-3360.119246940835	73.80174285309158	2647.387152333236	-3513.781073274026	387.8918949796485	2328.276867982542	-3428.819291871992	511.3005612138375	2250.415171835626	-3553.521253045598	566.323293115797	2337.183317171382	-3668.801749710598	395.5865037824736	2243.506460420371	-3682.359335166316	386.0042474882096	2366.895033330224	-3556.945315530403	167.1247024231844	2312.779835767951	-3482.013886891362	241.8771261625135	2292.6849350021	-3563.487261965396	271.6446979486731	2239.010154553609	-3425.605485844059	108.4996568859407	2269.108997896841	-3453.179647356357	97.67747575944888	2354.181350707203	-3570.38362605442	59.41080890318985	2291.691360113417	-3517.46623432909	51.53863369914208	2209.45946557728	-3354.087597592021	78.98122003704083	2322.120755935252	-3423.685461437741	547.4035665146697	2711.153581606347	
216	25.7	-3543.058944625626	1083.354533370996	2478.047129192357	-3573.094917300063	1027.816932940924	2629.618033737946	-3603.186085590456	910.9421551744656	2479.998328989857	-3382.696016681648	643.1658296474552	2603.48666673095	-3387.205522567222	627.7154814471419	2335.195056978111	-3208.444664706251	716.2498949611297	2519.107029396467	-3220.317447501063	719.4386539222351	2427.892400261851	-3313.033994280649	640.5292866836696	2676.673561859933	-3299.440447741097	622.4214177497184	2256.815060652442	-3545.847775015623	587.0735090862938	2644.286847901553	-3476.535558575447	419.7708332800697	2674.20270742711	-3642.501520141179	428.5581089014826	2720.932322171502	-3662.283900505281	411.7965237266669	2590.394423508321	-3542.41505603826	278.9907867575356	2726.571658481232	-3547.863407154447	164.734952580449	2673.938671924373	-3458.258285472576	211.0746475361979	2653.984368294312	-3428.896657993879	99.20208700379875	2701.134571296319	-3459.037998512882	86.19932398049305	2615.428873275067	-3573.722711766038	62.57018801543171	2676.574607810398	-3516.489714583191	51.10565386883212	2762.901260126361	-3360.124499707617	73.81272603676587	2647.39685175477	-3513.588861847266	388.7333411999577	2328.218641851008	-3429.023693687202	512.5016001519117	2250.34648935379	-3553.931199776012	567.0403155467684	2337.05407223759	-3668.636717844793	395.819623098022	2243.446499700083	-3682.206499698591	386.1842194429686	2366.811892301548	-3556.899976815277	167.209187013787	2312.714721569913	-3481.9232554169	241.9263109751701	2292.629898997214	-3563.369521359171	271.7343715538191	2238.960535658779	-3425.574170032787	108.4871238572524	2269.050820243638	-3453.146676071944	97.69252184553338	2354.13139505544	-3570.368437022568	59.39862580116833	2291.673753678954	-3517.465461076784	51.5226535160805	2209.42680504926	-3354.067697935315	78.9876090098074	2322.074447000688	-3423.940296230586	548.4139638319002	2711.060152315872	
217	25.705	-3542.598656607325	1085.582167219467	2477.933406842742	-3572.711845336079	1030.124701284177	2629.567802546916	-3603.018895313036	913.2648539646339	2479.996354261619	-3382.784268586788	644.8064936707866	2603.550863119997	-3387.485004328317	629.4834402925071	2335.151361196395	-3208.639283001021	718.0983315288851	2519.09174642612	-3220.551009129034	721.3594025366299	2427.837085518965	-3313.29029443845	642.0571182330593	2676.795988786132	-3299.837086497571	624.1582265749186	2256.714772728295	-3546.29043434405	587.7845995694955	2644.303403560941	-3476.386771589252	420.6627005716733	2673.980686378262	-3642.378384084233	428.7836605350844	2720.706339754637	-3662.085175974142	411.9844301304462	2590.290901860205	-3542.344752939981	279.0651130443679	2726.493472613271	-3547.824607302038	164.8068153222225	2673.887671451012	-3458.201337164212	211.0735580221994	2653.940359611016	-3428.89182906789	99.2141980179743	2701.132975774457	-3459.025112070695	86.20494101406221	2615.420464345646	-3573.722408589987	62.57017175997374	2676.568111123568	-3516.489115199437	51.10341229001602	2762.890466601781	-3360.129081066177	73.82484406937554	2647.406480457853	-3513.389682361341	389.6082437590285	2328.150592348956	-3429.236878403297	513.7476029104831	2250.276715506086	-3554.357511478235	567.7853774811787	2336.920393791936	-3668.459153468545	396.0647836802338	2243.385768021287	-3682.049156448653	386.3772208985711	2366.726875324923	-3556.852511121683	167.3013683547794	2312.645344338002	-3481.827944361577	241.9810088826418	2292.570848431011	-3563.246446973098	271.833614204287	2238.903925033199	-3425.54196268116	108.4763654705933	2268.990549177143	-3453.11300398119	97.71201085740537	2354.078170973747	-3570.352261346711	59.38664426547431	2291.654170113869	-3517.46498339529	51.50645900560894	2209.390182282867	-3354.047237815001	78.99662535145816	2322.027099279301	-3424.204127345846	549.4637413472195	2710.970004322202	
218	25.71	-3542.129718724495	1087.884554578649	2477.821914986691	-3572.320070255566	1032.521764903067	2629.518365990129	-3602.846474445658	915.6685585171103	2479.999690280975	-3382.876544108089	646.4965153092875	2603.622929403557	-3387.773783238146	631.3189860562056	2335.113016921075	-3208.838628069123	720.0035086635085	2519.077597272845	-3220.791381483826	723.3399705347861	2427.77961091471	-3313.550444189294	643.6335098893791	2676.92300842047	-3300.250818929593	625.9515787651508	2256.61682030972	-3546.741280295704	588.5160061994212	2644.317391970008	-3476.226404697438	421.5918721565462	2673.761931472685	-3642.2505877248	429.0229005113925	2720.471293849747	-3661.87789156841	412.184060396244	2590.177112234507	-3542.274169477638	279.1466125333039	2726.411904956354	-3547.782029690661	164.8817170574395	2673.832308750724	-3458.141064242128	211.0734181452274	2653.89862886588	-3428.886289997422	99.22648775689795	2701.131196508772	-3459.010536087611	86.21622837952613	2615.413977450275	-3573.721427189058	62.56881806755516	2676.561600574305	-3516.49003795929	51.10273246255209	2762.879377523866	-3360.132919777672	73.83801042056103	2647.415983559487	-3513.18351566113	390.5167036932333	2328.073971697017	-3429.459795594344	515.0385748919413	2250.206871565146	-3554.800687170005	568.558603911804	2336.78412239914	-3668.269297576162	396.3218247302132	2243.326052404195	-3681.886358584034	386.5827561309069	2366.642276188919	-3556.802727146905	167.4009673403628	2312.572797259977	-3481.728145830893	242.0412034680313	2292.508846014122	-3563.11838458439	271.9429152243605	2238.841772699293	-3425.509069242899	108.4676271696946	2268.928623049263	-3453.078654528823	97.73610993091289	2354.022030884252	-3570.335365921041	59.37509916778657	2291.632805916676	-3517.464837106612	51.49012382045431	2209.349994141809	-3354.026383469708	79.00830064436802	2321.978684080361	-3424.476727110391	550.5533760248699	2710.881991706266	
